<svg id="Layer_1" data-name="Layer 1" xmlns="http://www.w3.org/2000/svg" viewBox="0 0 1580.02 858.63"><defs><style>.cls-1{fill:blue;}</style></defs><path class="cls-1" d="M533.5-.5c-7,42.11-8.4,93,21,118,21.64,18.42,42,8.41,94,20,14.35,3.2,89,19.84,128,71,31.84,41.72,9.33,66.21,32,132,28.3,82.13,92.92,129.71,130,157,25.79,19,90.27,65.29,184,77,71,8.88,131.74-5.51,176-16,29.18-6.92,52.12-12.36,67-20,118.93-61.11,153.29-422.86,0-539-67.92-51.46-136.81-27.4-375-10A4438.36,4438.36,0,0,1,533.5-.5Z" transform="translate(112.04 31.58)"/><path class="cls-1" d="M0,0C-112.59,227.64-123.08,295.28-104.94,307.79c7.07,4.88,20.78,3.67,94,20,2,.44,5.12,1.14,9.16,2.16,43.68,11,102.85,44.11,118.84,68.84C165,473-51.19,661.3-16,710c26.64,36.86,151.74-69.32,295.06-22.21C353,712.1,351.62,750.87,466,795c56.77,21.9,135.56,51.14,190,15,32.55-21.61,43.76-58.21,50.06-81.21,49.79-182,121.77-445.06,0-539-87.43-67.44-179.91,25.43-375-10C178.8,152.14,67.58,65.15,0,0Z" transform="translate(112.04 31.58)"/></svg>